<svg width="56" height="57" viewBox="0 0 56 57" fill="none" xmlns="http://www.w3.org/2000/svg">
<path d="M43.7036 13.1232L40.7169 15.4566L28.0003 24.9066L15.2836 15.3632L12.2969 13.0299C11.5933 12.4478 10.7344 12.085 9.82659 11.9863C8.91878 11.8876 8.00197 12.0575 7.18974 12.4748C6.37751 12.8921 5.70555 13.5385 5.25711 14.3339C4.80868 15.1294 4.60347 16.0389 4.66692 16.9499V43.9932C4.66692 44.8348 5.00125 45.642 5.59637 46.2371C6.19148 46.8322 6.99863 47.1666 7.84025 47.1666H15.2836V29.1532L28.0003 38.6966L40.7169 29.1532V47.1666H48.1603C49.0019 47.1666 49.809 46.8322 50.4041 46.2371C50.9993 45.642 51.3336 44.8348 51.3336 43.9932V16.9499C51.3774 16.0468 51.1579 15.1504 50.7018 14.3697C50.2458 13.5891 49.5727 12.9577 48.7645 12.5523C47.9563 12.147 47.0478 11.9852 46.1493 12.0865C45.2508 12.1879 44.4012 12.548 43.7036 13.1232Z" fill="black"/>
</svg>
