<svg width="56" height="57" viewBox="0 0 56 57" fill="none" xmlns="http://www.w3.org/2000/svg">
<path d="M28.0002 1.62012C13.1546 1.62012 1.12024 13.6545 1.12024 28.5001C1.12024 43.3457 13.1546 55.3801 28.0002 55.3801C42.8458 55.3801 54.8802 43.3457 54.8802 28.5001C54.8802 13.6545 42.8458 1.62012 28.0002 1.62012ZM21.4202 39.6413H15.977V22.1245H21.4202V39.6413ZM18.665 19.9741C16.9458 19.9741 15.8342 18.7561 15.8342 17.2497C15.8342 15.7125 16.9794 14.5309 18.735 14.5309C20.4906 14.5309 21.5658 15.7125 21.5994 17.2497C21.5994 18.7561 20.4906 19.9741 18.665 19.9741ZM41.3002 39.6413H35.857V29.9337C35.857 27.6741 35.0674 26.1397 33.099 26.1397C31.5954 26.1397 30.7022 27.1785 30.3074 28.1781C30.1618 28.5337 30.1254 29.0377 30.1254 29.5389V39.6385H24.6794V27.7105C24.6794 25.5237 24.6094 23.6953 24.5366 22.1217H29.2658L29.515 24.5549H29.6242C30.341 23.4125 32.0966 21.7269 35.0338 21.7269C38.615 21.7269 41.3002 24.1265 41.3002 29.2841V39.6413Z" fill="black"/>
</svg>
