<svg width="120" height="96" viewBox="0 0 120 96" fill="none" xmlns="http://www.w3.org/2000/svg">
<path d="M44.9212 0.990047V88.7251L64.4924 95.0288V21.4388C64.4924 17.9775 66.0187 15.675 68.4787 16.4738C71.6437 17.3925 72.2699 20.5575 72.2699 24.015V53.3888C84.4799 59.3475 94.0837 53.37 94.0837 37.6275C94.0837 21.4388 88.4587 14.2463 71.8987 8.4863C65.3549 6.2363 53.2424 2.5463 44.9437 0.986298L44.9212 0.990047ZM68.2049 82.2001L99.6899 70.8113C103.26 69.5251 103.811 67.6913 100.92 66.7313C97.9912 65.7751 92.7337 66.0263 89.1187 67.3351L68.1037 74.8351V62.8988L69.2924 62.4901C69.2924 62.4901 75.3074 60.3863 83.8612 59.4038C92.34 58.5076 102.791 59.5576 111.052 62.7038C120.292 65.715 121.267 70.0688 118.924 73.0801C116.599 76.0651 110.82 78.2551 110.82 78.2551L68.1037 93.7801V82.2938L68.2049 82.2001ZM9.04494 81.0113C-0.468806 78.2775 -2.02881 72.6713 2.28369 69.3863C6.28869 66.4763 13.0649 64.1363 13.0649 64.1363L41.1487 54.0751V65.6363L21.0337 73.0013C17.4974 74.3513 16.9124 76.1663 19.8449 77.1226C22.7737 78.1013 28.0237 77.8876 31.5449 76.5376L41.2312 73.0013V83.37C40.6462 83.5088 39.9599 83.5838 39.2774 83.7413C29.5912 85.3876 19.3162 84.7201 9.10119 81.3413L9.04494 81.0113Z" fill="black"/>
</svg>
