<svg width="120" height="104" viewBox="0 0 120 104" fill="none" xmlns="http://www.w3.org/2000/svg">
<path d="M105.938 30.5446C105.938 39.5982 98.5714 46.8839 89.5982 46.8839C80.5446 46.8839 73.2589 39.5714 73.2589 30.5446C73.2589 21.5178 80.5714 14.2053 89.5982 14.2053C98.5714 14.2053 105.938 21.491 105.938 30.5446ZM120 30.5982C120 47.4732 106.339 61.0803 89.5446 61.0803L60.2679 82.4553C59.1964 93.9732 49.4196 103.027 37.6339 103.027C26.7857 103.027 17.625 95.3125 15.4018 85.0803L0 78.8928V50.1517L26.0357 60.6785C30.0804 58.2142 34.6607 57.116 39.9643 57.5982L58.9821 30.3571C59.1161 13.6696 72.7768 0.142822 89.5179 0.142822C106.339 0.142822 120 13.8035 120 30.5982ZM54.375 80.2321C54.375 70.9375 46.9286 63.491 37.6339 63.491C36.4286 63.491 35.2232 63.625 34.0179 63.8928L40.9821 66.7053C47.8125 69.4375 51.1607 77.1517 48.4018 83.9821C45.6696 90.8125 37.9018 94.1607 31.0714 91.3482C28.3393 90.2767 25.5804 89.125 22.8482 88.0803C25.6607 93.3571 31.2054 96.9732 37.6339 96.9732C46.9286 96.9732 54.375 89.5267 54.375 80.2321ZM109.955 30.5982C109.955 19.3482 100.768 10.1875 89.5446 10.1875C78.2143 10.1875 69.0536 19.3482 69.0536 30.5982C69.0536 41.9017 78.2411 51.0089 89.5446 51.0089C100.768 51.0357 109.955 41.9285 109.955 30.5982Z" fill="black"/>
</svg>
