<svg width="120" height="120" viewBox="0 0 120 120" fill="none" xmlns="http://www.w3.org/2000/svg">
<path d="M70.8787 120H89.2575C106.132 120 120 106.132 120 89.2575V30.7425C120 13.8675 106.132 0 89.2575 0H70.5075C70.1363 0 69.7463 0.37125 69.7463 0.7425V119.257C69.7463 119.629 70.1175 120 70.8787 120ZM93.75 54.0037C100.507 54.0037 105.743 59.6288 105.743 65.9963C105.743 72.7538 100.118 77.9888 93.75 77.9888C86.9925 77.9888 81.7575 72.7538 81.7575 65.9963C81.3675 59.2575 86.9925 54.0037 93.75 54.0037ZM56.9925 0H30.7425C13.8675 0 0 13.8675 0 30.7425V89.2575C0 106.132 13.8675 120 30.7425 120H56.9925C57.3638 120 57.7537 119.629 57.7537 119.257V0.7425C57.7537 0.37125 57.3825 0 56.9925 0ZM48.3787 110.254H30.7425C27.984 110.258 25.2517 109.718 22.7023 108.665C20.1529 107.611 17.8366 106.065 15.886 104.114C13.9354 102.163 12.389 99.8471 11.3354 97.2977C10.2819 94.7483 9.74181 92.016 9.74625 89.2575V30.7425C9.74181 27.984 10.2819 25.2517 11.3354 22.7023C12.389 20.1529 13.9354 17.8366 15.886 15.886C17.8366 13.9354 20.1529 12.389 22.7023 11.3354C25.2517 10.2819 27.984 9.74181 30.7425 9.74625H48.0075L48.3787 110.254ZM18.75 35.9963C18.75 42.3638 23.6325 47.2463 30 47.2463C36.3675 47.2463 41.25 42.3638 41.25 35.9963C41.25 29.6287 36.3675 24.7463 30 24.7463C23.6325 24.7463 18.75 29.6287 18.75 35.9963Z" fill="black"/>
</svg>
