<svg width="120" height="120" viewBox="0 0 120 120" fill="none" xmlns="http://www.w3.org/2000/svg">
<g clip-path="url(#clip0)">
<path d="M20.5105 105.154C31.4263 114.748 45.469 120.027 60.0018 120C75.1367 120 88.948 114.416 99.5117 105.154C108.887 95.6025 77.9305 61.62 60.0018 48.0825C42.0918 61.6162 11.1168 95.6025 20.5105 105.154ZM76.3105 33.1462C88.8093 47.9512 113.732 84.705 106.701 97.695C115.329 87.0361 120.026 73.7322 120.002 60.0187C120.002 43.32 113.188 28.2038 102.152 17.3438C102.152 17.3438 102.013 17.2237 101.743 17.13C101.29 16.974 100.812 16.9016 100.333 16.9163C97.3893 16.9163 90.4143 19.08 76.3143 33.1462H76.3105ZM18.2605 17.13C17.9905 17.2237 17.8518 17.3438 17.8293 17.3438C12.1702 22.915 7.6786 29.5586 4.61694 36.8859C1.55529 44.2133 -0.0149553 52.0775 -0.00199563 60.0187C-0.00199563 74.295 4.978 87.3825 13.2993 97.6725C6.30925 84.6675 31.1905 47.9288 43.708 33.1425C29.608 19.0575 22.6143 16.9125 19.6668 16.9125C19.1853 16.8898 18.7045 16.9703 18.2568 17.1488L18.2605 17.13ZM60.0018 17.7563C60.0018 17.7563 45.2755 9.1425 33.7705 8.73C29.2593 8.57625 26.5068 10.1962 26.1693 10.4288C36.8943 3.225 48.298 0 59.9193 0H59.998C71.6793 0 83.023 3.225 93.8268 10.4288C93.493 10.1925 90.7555 8.5725 86.2255 8.73C74.7205 9.13875 59.9943 17.7337 59.9943 17.7337L60.0018 17.7563Z" fill="black"/>
</g>
<defs>
<clipPath id="clip0">
<rect width="120" height="120" fill="white"/>
</clipPath>
</defs>
</svg>
